# xmcd CD database file
#
# Track frame offsets:
#	150
#	17419
#	32731
#	51845
#	68258
#	85231
#	98043
#	111668
#	129646
#	148016
#	167248
#
# Disc length: 2480 seconds
#
# Revision: 0
# Processed by: cddbd v1.5.1PL2 Copyright (c) Steve Scherf et al.
# Submitted via: CDex 1.51
#
DISCID=9009ae0b
DTITLE=6 V 6 - Tube  Rejuvenator
DYEAR=2004
DGENRE=Blues
TTITLE0=5 O'Clock
TTITLE1=What Am I Doin'
TTITLE2=Blue Tears
TTITLE3=Ain't Nobody's Business
TTITLE4=Little Blue Pill
TTITLE5=Empty Arms
TTITLE6=Hey Good Lookin'
TTITLE7=Miller Time
TTITLE8=Botherin' Me
TTITLE9=Smoke Smoke Smoke
TTITLE10=3 AM
EXTD=YEAR: 2004
EXTT0=
EXTT1=
EXTT2=
EXTT3=
EXTT4=
EXTT5=
EXTT6=
EXTT7=
EXTT8=
EXTT9=
EXTT10=
PLAYORDER=
